<svg width="30" height="32" viewBox="0 0 30 32" fill="none" xmlns="http://www.w3.org/2000/svg">
<path d="M22.7795 7.44916H20.6578V5.13331C20.6578 4.83937 20.4191 4.59888 20.1274 4.59888H19.7738C19.4821 4.59888 19.2434 4.83937 19.2434 5.13331V7.44916H10.7568V5.13331C10.7568 4.83937 10.5181 4.59888 10.2264 4.59888H9.87281C9.58109 4.59888 9.3424 4.83937 9.3424 5.13331V7.44916H7.22076C6.04944 7.44916 5.09912 8.40668 5.09912 9.58687V25.2634C5.09912 26.4436 6.04944 27.4012 7.22076 27.4012H22.7795C23.9508 27.4012 24.9011 26.4436 24.9011 25.2634V9.58687C24.9011 8.40668 23.9508 7.44916 22.7795 7.44916ZM7.22076 8.8743H22.7795C23.1684 8.8743 23.4867 9.19496 23.4867 9.58687V11.7246H6.51355V9.58687C6.51355 9.19496 6.83179 8.8743 7.22076 8.8743ZM22.7795 25.976H7.22076C6.83179 25.976 6.51355 25.6554 6.51355 25.2634V13.1497H23.4867V25.2634C23.4867 25.6554 23.1684 25.976 22.7795 25.976ZM11.6408 18.8503H9.87281C9.58109 18.8503 9.3424 18.6098 9.3424 18.3159V16.5344C9.3424 16.2405 9.58109 16 9.87281 16H11.6408C11.9326 16 12.1713 16.2405 12.1713 16.5344V18.3159C12.1713 18.6098 11.9326 18.8503 11.6408 18.8503ZM15.8841 18.8503H14.1161C13.8244 18.8503 13.5857 18.6098 13.5857 18.3159V16.5344C13.5857 16.2405 13.8244 16 14.1161 16H15.8841C16.1759 16 16.4145 16.2405 16.4145 16.5344V18.3159C16.4145 18.6098 16.1759 18.8503 15.8841 18.8503ZM20.1274 18.8503H18.3594C18.0677 18.8503 17.829 18.6098 17.829 18.3159V16.5344C17.829 16.2405 18.0677 16 18.3594 16H20.1274C20.4191 16 20.6578 16.2405 20.6578 16.5344V18.3159C20.6578 18.6098 20.4191 18.8503 20.1274 18.8503ZM15.8841 23.1257H14.1161C13.8244 23.1257 13.5857 22.8852 13.5857 22.5913V20.8099C13.5857 20.5159 13.8244 20.2754 14.1161 20.2754H15.8841C16.1759 20.2754 16.4145 20.5159 16.4145 20.8099V22.5913C16.4145 22.8852 16.1759 23.1257 15.8841 23.1257ZM11.6408 23.1257H9.87281C9.58109 23.1257 9.3424 22.8852 9.3424 22.5913V20.8099C9.3424 20.5159 9.58109 20.2754 9.87281 20.2754H11.6408C11.9326 20.2754 12.1713 20.5159 12.1713 20.8099V22.5913C12.1713 22.8852 11.9326 23.1257 11.6408 23.1257ZM20.1274 23.1257H18.3594C18.0677 23.1257 17.829 22.8852 17.829 22.5913V20.8099C17.829 20.5159 18.0677 20.2754 18.3594 20.2754H20.1274C20.4191 20.2754 20.6578 20.5159 20.6578 20.8099V22.5913C20.6578 22.8852 20.4191 23.1257 20.1274 23.1257Z" fill="#7169FE"/>
</svg>
