<svg width="30" height="30" viewBox="0 0 30 30" fill="none" xmlns="http://www.w3.org/2000/svg">
<path d="M22.4259 5.06557H17.857C17.8776 4.93104 17.8879 4.79134 17.8879 4.65163C17.8879 3.05281 16.5936 1.75409 15.0001 1.75409C13.4067 1.75409 12.1123 3.05281 12.1123 4.65163C12.1123 4.79134 12.1226 4.93104 12.1433 5.06557H7.57437C6.20783 5.06557 5.09912 6.17802 5.09912 7.54918V25.7623C5.09912 27.1335 6.20783 28.2459 7.57437 28.2459H22.4259C23.7924 28.2459 24.9011 27.1335 24.9011 25.7623V7.54918C24.9011 6.17802 23.7924 5.06557 22.4259 5.06557ZM15.0001 3.40983C15.686 3.40983 16.2377 3.96347 16.2377 4.65163C16.2377 5.3398 15.686 5.89344 15.0001 5.89344C14.3143 5.89344 13.7625 5.3398 13.7625 4.65163C13.7625 3.96347 14.3143 3.40983 15.0001 3.40983ZM23.2509 25.7623C23.2509 26.2176 22.8796 26.5902 22.4259 26.5902H7.57437C7.12057 26.5902 6.74929 26.2176 6.74929 25.7623V7.54918C6.74929 7.09385 7.12057 6.72131 7.57437 6.72131H10.0496V7.75615C10.0496 8.09764 10.3281 8.37705 10.6684 8.37705H19.3318C19.6721 8.37705 19.9506 8.09764 19.9506 7.75615V6.72131H22.4259C22.8796 6.72131 23.2509 7.09385 23.2509 7.54918V25.7623ZM10.8747 18.7254C10.1888 18.7254 9.63708 19.2791 9.63708 19.9672C9.63708 20.6554 10.1888 21.209 10.8747 21.209C11.5605 21.209 12.1123 20.6554 12.1123 19.9672C12.1123 19.2791 11.5605 18.7254 10.8747 18.7254ZM19.5381 19.1394H13.7625C13.5356 19.1394 13.3499 19.3256 13.3499 19.5533V20.3812C13.3499 20.6088 13.5356 20.7951 13.7625 20.7951H19.5381C19.765 20.7951 19.9506 20.6088 19.9506 20.3812V19.5533C19.9506 19.3256 19.765 19.1394 19.5381 19.1394ZM11.607 15.7451L14.9176 12.4543C15.0259 12.3457 15.0259 12.1697 14.9176 12.0611L14.2679 11.4039C14.1596 11.2953 13.9842 11.2953 13.8759 11.4039L11.4213 13.8462L10.359 12.7648C10.2507 12.6561 10.0754 12.6561 9.96711 12.7648L9.3122 13.4167C9.20391 13.5254 9.20391 13.7013 9.3122 13.8099L11.2254 15.7451C11.3233 15.8538 11.4987 15.8538 11.607 15.7451V15.7451ZM19.5381 14.1721H15.5364L13.8708 15.8279H19.5381C19.765 15.8279 19.9506 15.6416 19.9506 15.4139V14.5861C19.9506 14.3584 19.765 14.1721 19.5381 14.1721Z" fill="#7169FE"/>
</svg>
