<svg width="30" height="30" viewBox="0 0 30 30" fill="none" xmlns="http://www.w3.org/2000/svg">
<path d="M25.8712 13.8446L23.2499 11.6999V8.36876C23.2499 8.30028 23.2227 8.23459 23.1743 8.18617C23.126 8.13774 23.0604 8.11053 22.992 8.11053H22.1326C22.0642 8.11053 21.9986 8.13774 21.9502 8.18617C21.9019 8.23459 21.8747 8.30028 21.8747 8.36876V10.5779L15.8667 5.66637C15.6209 5.46787 15.3147 5.35962 14.999 5.35962C14.6833 5.35962 14.3771 5.46787 14.1314 5.66637L4.12685 13.8446C4.05628 13.9022 4.01141 13.9854 4.00206 14.0761C3.99272 14.1668 4.01967 14.2575 4.077 14.3283L4.51103 14.8624C4.56831 14.9328 4.65101 14.9776 4.74115 14.9872C4.83129 14.9968 4.92156 14.9704 4.99232 14.9136L6.7482 13.477V23.9354C6.7482 24.118 6.82064 24.2932 6.94959 24.4223C7.07853 24.5514 7.25342 24.624 7.43577 24.624H12.9363C13.1187 24.624 13.2936 24.5514 13.4225 24.4223C13.5515 24.2932 13.6239 24.118 13.6239 23.9354V18.4264L16.3742 18.4394V23.9517C16.3742 24.1344 16.4466 24.3095 16.5755 24.4387C16.7045 24.5678 16.8794 24.6404 17.0617 24.6404L22.5623 24.6261C22.7446 24.6261 22.9195 24.5536 23.0485 24.4245C23.1774 24.2953 23.2499 24.1202 23.2499 23.9375V13.477L25.0057 14.9136C25.0765 14.9712 25.1671 14.9983 25.2578 14.9889C25.3484 14.9795 25.4317 14.9345 25.4892 14.8637L25.9232 14.3296C25.9517 14.2944 25.9729 14.2539 25.9857 14.2104C25.9985 14.1669 26.0026 14.1213 25.9978 14.0763C25.9929 14.0312 25.9793 13.9875 25.9576 13.9478C25.9358 13.908 25.9065 13.8729 25.8712 13.8446V13.8446ZM21.87 23.2524H21.8743L17.7489 23.2653V17.749C17.7483 17.5669 17.676 17.3924 17.5476 17.2635C17.4193 17.1345 17.2453 17.0615 17.0635 17.0604L12.938 17.0488C12.8476 17.0485 12.7579 17.0661 12.6743 17.1006C12.5906 17.1351 12.5145 17.1857 12.4505 17.2497C12.3864 17.3137 12.3356 17.3897 12.3009 17.4734C12.2662 17.5571 12.2483 17.6468 12.2483 17.7374V23.2524H8.12334V12.3533L14.999 6.73373L21.8747 12.3533L21.87 23.2524Z" fill="#7169FE"/>
</svg>
