<svg width="30" height="30" viewBox="0 0 30 30" fill="none" xmlns="http://www.w3.org/2000/svg">
<path d="M14.9999 18.8985C14.2822 18.8985 13.7004 19.4803 13.7004 20.198C13.7004 20.9157 14.2822 21.4975 14.9999 21.4975C15.7176 21.4975 16.2994 20.9157 16.2994 20.198C16.2994 19.4803 15.7176 18.8985 14.9999 18.8985ZM15.3559 17.7847H14.6133C14.3057 17.7847 14.0564 17.5353 14.0564 17.2277V17.2101C14.0564 13.9454 17.6504 14.2574 17.6504 12.2252C17.6504 11.2962 16.8261 10.3589 14.9846 10.3589C13.632 10.3589 12.9302 10.8067 12.2365 11.6905C12.0552 11.9217 11.7235 11.9688 11.4825 11.8008L10.8729 11.3762C10.6118 11.1943 10.5545 10.8299 10.7501 10.579C11.7353 9.31533 12.9041 8.50249 14.9846 8.50249C17.4128 8.50249 19.5069 9.88326 19.5069 12.2252C19.5069 15.3539 15.9128 15.1884 15.9128 17.2101V17.2277C15.9128 17.5353 15.6634 17.7847 15.3559 17.7847ZM14.9999 4.97526C20.5052 4.97526 25.0246 9.43419 25.0246 15C25.0246 20.5364 20.5409 25.0248 14.9999 25.0248C9.46567 25.0248 4.97514 20.5432 4.97514 15C4.97514 9.4677 9.45852 4.97526 14.9999 4.97526ZM14.9999 3.49011C8.64359 3.49011 3.48999 8.64557 3.48999 15C3.48999 21.3582 8.64359 26.5099 14.9999 26.5099C21.3562 26.5099 26.5098 21.3582 26.5098 15C26.5098 8.64557 21.3562 3.49011 14.9999 3.49011Z" fill="#7169FE"/>
</svg>
