<svg width="30" height="30" viewBox="0 0 30 30" fill="none" xmlns="http://www.w3.org/2000/svg">
<path d="M20.6578 9.34228C20.6578 6.22263 18.1198 3.68457 15.0001 3.68457C11.8804 3.68457 9.3424 6.22263 9.3424 9.34228H5.09912V22.7793C5.09912 24.7323 6.68226 26.3154 8.63519 26.3154H21.365C23.318 26.3154 24.9011 24.7323 24.9011 22.7793V9.34228H20.6578ZM15.0001 5.099C17.3399 5.099 19.2434 7.00251 19.2434 9.34228H10.7568C10.7568 7.00251 12.6603 5.099 15.0001 5.099ZM23.4867 22.7793C23.4867 23.9492 22.5349 24.901 21.365 24.901H8.63519C7.46533 24.901 6.51355 23.9492 6.51355 22.7793V10.7567H9.3424V12.8783C9.3424 13.2689 9.65906 13.5856 10.0496 13.5856C10.4402 13.5856 10.7568 13.2689 10.7568 12.8783V10.7567H19.2434V12.8783C19.2434 13.2689 19.56 13.5856 19.9506 13.5856C20.3412 13.5856 20.6578 13.2689 20.6578 12.8783V10.7567H23.4867V22.7793Z" fill="#7169FE"/>
<rect x="14.0103" y="14.5757" width="1.65017" height="6.93069" rx="0.825083" fill="#7169FE"/>
<rect x="18.3005" y="17.2159" width="1.65017" height="6.9307" rx="0.825083" transform="rotate(90 18.3005 17.2159)" fill="#7169FE"/>
</svg>
