<svg width="30" height="30" viewBox="0 0 30 30" fill="none" xmlns="http://www.w3.org/2000/svg">
<path d="M11.7742 8.07888C11.7742 7.72473 11.4869 7.43635 11.1341 7.43635H11.129C10.9577 7.43635 10.7964 7.50212 10.6804 7.62355L9.24395 9.06545C9.12298 9.18687 9.05746 9.34877 9.05746 9.51572V9.52078C9.05746 9.87493 9.34476 10.1633 9.69758 10.1633H10.6048C10.7762 10.1633 10.9375 10.0975 11.0534 9.97612L11.5827 9.44489C11.7036 9.32347 11.7692 9.16157 11.7692 8.99462V8.07888H11.7742ZM15 2.45294C8.09476 2.45294 2.5 8.06876 2.5 15C2.5 21.9312 8.09476 27.5471 15 27.5471C21.9052 27.5471 27.5 21.9312 27.5 15C27.5 8.06876 21.9052 2.45294 15 2.45294ZM17.4194 25.6448V23.9044C17.4194 22.5637 16.3357 21.4759 15 21.4759H13.9819C13.7853 21.4759 13.3216 21.3191 13.1653 21.2027L12.0464 20.3578C11.875 20.2313 11.7742 20.0239 11.7742 19.8114V18.6022C11.7742 18.3644 11.9002 18.1418 12.1018 18.0153L14.2641 16.7151C14.37 16.6493 14.4909 16.619 14.6119 16.619H16.1845C16.3458 16.619 16.502 16.6797 16.628 16.7809L19.2591 19.0474H20.7813L21.6532 19.9227C22.1321 20.4033 22.7671 20.6664 23.4425 20.6664H24.2893C22.7823 23.1505 20.3226 24.982 17.4194 25.6448V25.6448ZM25.1058 19.0474H23.4476C23.2056 19.0474 22.9688 18.9513 22.7974 18.7793L21.9254 17.904C21.623 17.6005 21.2147 17.4285 20.7863 17.4285H19.8639L17.6865 15.5515C17.2732 15.1923 16.744 15 16.1946 15H14.622C14.2087 15 13.8004 15.1113 13.4425 15.3289L11.2802 16.6291C10.5897 17.044 10.1663 17.7927 10.1663 18.6022V19.8114C10.1663 20.5349 10.504 21.2179 11.0837 21.653L12.2026 22.4979C12.6361 22.8267 13.4425 23.0949 13.9869 23.0949H15.005C15.4486 23.0949 15.8115 23.4592 15.8115 23.9044V25.8876C15.5444 25.9079 15.2772 25.9281 15.005 25.9281C9.00202 25.9281 4.11794 21.0256 4.11794 15C4.11794 8.9845 8.98185 4.09216 14.9698 4.07192L14.1935 4.6335C13.6794 5.02307 13.3871 5.60489 13.3871 6.22212V7.39588C13.3871 7.71967 13.5433 8.25596 13.6845 8.5241C13.6442 8.63035 12.621 9.283 12.4446 9.46007C12.0111 9.89517 11.7742 10.4719 11.7742 11.0841V11.9138C11.7742 13.1787 12.8024 14.2108 14.0625 14.2108H15.3377C15.8921 14.2108 16.4062 14.0134 16.8095 13.6745C17.006 13.7453 17.2228 13.7807 17.4446 13.7807H18.12C19.4103 13.7807 19.7429 12.7587 19.9395 12.693C20.1966 13.1534 20.62 13.5126 21.124 13.6795C20.9073 14.3979 21.0786 15.2125 21.6331 15.7842L22.5504 16.7505C22.9889 17.2008 23.5887 17.4538 24.1986 17.4538H25.5948C25.4738 18.0002 25.3075 18.5314 25.1058 19.0474V19.0474ZM24.2087 15.8297C24.0272 15.8297 23.8508 15.7538 23.7248 15.6274L22.7923 14.6459C22.6998 14.5511 22.6484 14.4234 22.6493 14.2907C22.6503 14.158 22.7035 14.031 22.7974 13.9376C23.4325 13.3001 23.3266 13.5025 23.3266 13.037C23.3266 12.9105 23.2762 12.7891 23.1855 12.698L22.7873 12.2983C22.6966 12.2073 22.5756 12.1567 22.4496 12.1567H21.7742C21.3458 12.1567 21.1391 11.6356 21.4365 11.3371L21.8347 10.9677C21.9254 10.8767 22.0464 10.8261 22.1724 10.8261H22.5907C22.8528 10.8261 23.0696 10.6136 23.0696 10.3454V9.8294C23.0696 9.56632 22.8579 9.34877 22.5907 9.34877H21.1694C20.7964 9.34877 20.494 9.65233 20.494 10.0267V10.31C20.494 10.6035 20.3075 10.8615 20.0302 10.9526L18.6946 11.3978C18.4778 11.4686 18.4627 11.6507 18.4627 11.8126C18.4627 11.9998 18.3115 12.1516 18.125 12.1516H17.4496C17.2631 12.1516 17.1119 11.9998 17.1119 11.8126C17.1119 11.3877 16.4819 11.3775 16.3407 11.6609C15.8871 12.2882 15.7611 12.5817 15.3377 12.5817H14.0625C13.6895 12.5817 13.3871 12.2781 13.3871 11.9037V11.074C13.3871 10.8919 13.4577 10.7198 13.5837 10.5934C14.5665 9.88505 15.0756 9.70292 15.0756 8.99968C15.0756 8.85296 15.1663 8.72141 15.3075 8.67588L17.001 8.10924C17.0716 8.08394 17.1371 8.04853 17.1875 7.99288L18.3216 6.85453C18.5736 6.60157 18.498 6.1007 17.9839 6.1007H17.1069L16.4315 7.0569V7.39588C16.4315 7.58307 16.2802 7.73485 16.0938 7.73485H15.3377C15.1512 7.73485 15 7.58307 15 7.39588V6.22212C15 6.11588 15.0504 6.01469 15.1361 5.94892L17.3538 4.335C22.2278 5.42275 25.8871 9.78893 25.8871 15C25.8871 15.2783 25.8669 15.5565 25.8468 15.8297H24.2087Z" fill="#7169FE"/>
</svg>
