<svg width="21" height="22" viewBox="0 0 21 22" fill="none" xmlns="http://www.w3.org/2000/svg">
<path d="M20.0363 5.2069L16.2261 1.35203C15.8172 0.938342 15.2627 0.705936 14.6844 0.705933H2.50553C1.30135 0.705933 0.325195 1.69352 0.325195 2.91181V19.0883C0.325195 20.3066 1.30135 21.2942 2.50553 21.2942H18.4946C19.6988 21.2942 20.675 20.3066 20.675 19.0883V6.76669C20.675 6.18165 20.4452 5.62058 20.0363 5.2069V5.2069ZM13.4072 2.17652V6.58828H4.68586V2.17652H13.4072ZM19.2214 19.0883C19.2214 19.4937 18.8954 19.8236 18.4946 19.8236H2.50553C2.1048 19.8236 1.77875 19.4937 1.77875 19.0883V2.91181C1.77875 2.50639 2.1048 2.17652 2.50553 2.17652H3.2323V6.95593C3.2323 7.56508 3.72038 8.05887 4.32247 8.05887H13.7706C14.3727 8.05887 14.8607 7.56508 14.8607 6.95593V2.19908C14.9885 2.231 15.1053 2.29766 15.1983 2.39187L19.0085 6.24674C19.0762 6.31486 19.1299 6.39589 19.1665 6.48514C19.203 6.57439 19.2217 6.67009 19.2214 6.76669V19.0883ZM10.5001 9.89711C8.29599 9.89711 6.5028 11.7113 6.5028 13.9412C6.5028 16.1711 8.29599 17.9853 10.5001 17.9853C12.7042 17.9853 14.4973 16.1711 14.4973 13.9412C14.4973 11.7113 12.7042 9.89711 10.5001 9.89711ZM10.5001 16.5148C9.09744 16.5148 7.95636 15.3603 7.95636 13.9412C7.95636 12.5222 9.09744 11.3677 10.5001 11.3677C11.9027 11.3677 13.0438 12.5222 13.0438 13.9412C13.0438 15.3603 11.9027 16.5148 10.5001 16.5148Z" fill="#7169FE"/>
</svg>
