<svg width="22" height="25" viewBox="0 0 22 25" fill="none" xmlns="http://www.w3.org/2000/svg">
<g clipPath="url(#clip0)">
<path d="M20.9559 3.91432H16.1765L14.6324 1.8555C14.4269 1.58154 14.1605 1.35918 13.8542 1.20603C13.5479 1.05288 13.2102 0.973145 12.8677 0.973145L9.19123 0.973145C8.84878 0.973145 8.51103 1.05288 8.20473 1.20603C7.89844 1.35918 7.632 1.58154 7.42653 1.8555L5.88241 3.91432H1.103C1.00549 3.91432 0.91198 3.95306 0.843033 4.022C0.774086 4.09095 0.735352 4.18446 0.735352 4.28197L0.735352 5.01726C0.735352 5.11477 0.774086 5.20828 0.843033 5.27723C0.91198 5.34617 1.00549 5.38491 1.103 5.38491H1.97156L3.4973 22.4943C3.54664 23.0428 3.79941 23.5531 4.20591 23.9247C4.6124 24.2964 5.14322 24.5025 5.69399 24.5026H16.3649C16.9157 24.5025 17.4465 24.2964 17.853 23.9247C18.2595 23.5531 18.5123 23.0428 18.5616 22.4943L20.0874 5.38491H20.9559C21.0534 5.38491 21.147 5.34617 21.2159 5.27723C21.2849 5.20828 21.3236 5.11477 21.3236 5.01726V4.28197C21.3236 4.18446 21.2849 4.09095 21.2159 4.022C21.147 3.95306 21.0534 3.91432 20.9559 3.91432ZM8.603 2.73785C8.67174 2.64679 8.7606 2.57286 8.86264 2.52184C8.96469 2.47082 9.07715 2.44409 9.19123 2.44373H12.8677C12.9818 2.44409 13.0943 2.47082 13.1963 2.52184C13.2983 2.57286 13.3872 2.64679 13.4559 2.73785L14.3383 3.91432H7.72065L8.603 2.73785ZM17.0956 22.361C17.0805 22.5442 16.9969 22.715 16.8615 22.8394C16.7261 22.9637 16.5488 23.0325 16.3649 23.032H5.69399C5.51015 23.0325 5.33286 22.9637 5.19745 22.8394C5.06203 22.715 4.97843 22.5442 4.96329 22.361L3.44675 5.38491H18.6122L17.0956 22.361Z" fill="#7169FE"/>
</g>
<defs>
<clipPath id="clip0">
<rect x="0.529541" y="0.737793" width="21" height="24" fill="white"/>
</clipPath>
</defs>
</svg>
