<svg width="20" height="20" viewBox="0 0 20 20" fill="none" xmlns="http://www.w3.org/2000/svg">
<path d="M10 0.3125C4.64613 0.3125 0.3125 4.64527 0.3125 10C0.3125 15.3539 4.64527 19.6875 10 19.6875C11.881 19.6875 13.7243 19.1352 15.2894 18.1163C15.7583 17.811 15.8607 17.1675 15.5062 16.7346L15.1087 16.2489C14.8091 15.8829 14.2814 15.7932 13.8832 16.0486C12.7313 16.7874 11.3795 17.1875 10 17.1875C6.0368 17.1875 2.8125 13.9632 2.8125 10C2.8125 6.0368 6.0368 2.8125 10 2.8125C13.9117 2.8125 17.1875 5.06324 17.1875 9.0625C17.1875 10.5776 16.3636 12.1774 14.9152 12.3318C14.2375 12.314 14.2547 11.8295 14.3888 11.1589L15.3042 6.42809C15.4161 5.84961 14.973 5.3125 14.3838 5.3125H12.6267C12.497 5.3125 12.3718 5.36025 12.275 5.44666C12.1782 5.53306 12.1167 5.65207 12.102 5.78098L12.1016 5.78457C11.5275 5.08531 10.5216 4.93398 9.75902 4.93398C6.84574 4.93398 4.375 7.365 4.375 10.8504C4.375 13.4013 5.81191 14.9859 8.125 14.9859C9.17906 14.9859 10.366 14.3751 11.0543 13.4886C11.4263 14.8207 12.6408 14.8207 13.8164 14.8207C18.0707 14.8207 19.6875 12.0234 19.6875 9.0625C19.6875 3.73645 15.3915 0.3125 10 0.3125ZM9.15313 12.2043C8.28402 12.2043 7.74414 11.594 7.74414 10.6117C7.74414 8.85414 8.94645 7.7707 10.0344 7.7707C10.9052 7.7707 11.425 8.36605 11.425 9.36328C11.425 11.1235 10.1018 12.2043 9.15313 12.2043Z" fill="#001B61"/>
</svg>
