<svg width="15" height="15" viewBox="0 0 15 15" fill="none" xmlns="http://www.w3.org/2000/svg">
<path d="M14.4548 0.720288L11.4079 0.0171625C11.0768 -0.0590094 10.737 0.113842 10.6022 0.424389L9.19598 3.70564C9.07294 3.99275 9.15497 4.32966 9.39813 4.52595L11.1735 5.97908C10.1188 8.22615 8.27606 10.0953 5.98212 11.1705L4.52899 9.39509C4.32977 9.15193 3.99579 9.0699 3.70868 9.19294L0.427429 10.5992C0.113953 10.7369 -0.0588989 11.0767 0.0172729 11.4078L0.720398 14.4547C0.79364 14.7711 1.07489 14.9996 1.40594 14.9996C8.90887 14.9996 14.9997 8.92048 14.9997 1.40583C14.9997 1.07771 14.7741 0.79353 14.4548 0.720288Z" fill="#001B61"/>
</svg>
